<svg width="436" height="370" viewBox="0 0 436 370" fill="none" xmlns="http://www.w3.org/2000/svg">
<path d="M435 20C432.1 51.3 421.6 78.6 405.1 97.1C393.4 110.4 369.3 124 347 130C327.8 135.1 324 135.5 294.5 135.4C269.7 135.3 264.4 135 248 132.6C206.7 126.7 194.9 125.7 167 125.6C143 125.6 139.5 125.8 130 127.8C103.3 133.7 81.2 144.1 59 161.4L52.6 166.5L58 158.5C65 148.4 85.8 127.3 97.4 118.7C119.7 102.2 145.1 91.8 170.3 88.9C184.9 87.2 216.1 88.3 240.5 91.4C251.5 92.8 266.2 94.4 273.2 95.1C289.7 96.6 324.4 95.8 336.5 93.6C382.5 85.2 416.1 59.3 429.5 21.8C431.3 16.7 433.4 9.5 434.2 6C435.5 -0.300002 435.5 -0.400002 435.8 3.5C436 5.7 435.7 13.1 435 20Z" fill="black"/>
<path d="M417.7 149.6C401.4 190.9 368.9 218.4 327 226.6C314.1 229.1 284.7 229.6 267 227.6C244.7 225.1 221.8 221.3 196.5 216C175.9 211.6 160.7 209.4 139.5 207.5C130.5 206.7 108.2 208.5 95.8 211C77.3 214.8 58.9 222.5 43.3 232.9C33.7 239.3 18.9 252.7 12.8 260.3C10.7 263 9 264.7 9 264.1C9 263.5 10.8 259.1 13 254.3C25.7 226.8 50.3 201.3 76.5 188.5C109 172.6 144.7 168.8 191.5 176.4C199.8 177.7 218.4 180.8 233 183.3C265.5 188.8 283.5 190.9 305 191.7C339.8 192.9 367.5 185.8 390.5 169.9C398.7 164.3 413.9 149 418.6 141.8C420.2 139.3 421.6 137.5 421.8 137.9C421.9 138.3 420.1 143.6 417.7 149.6Z" fill="black"/>
<path d="M160.2 262.5C166.4 263.3 182.1 266 195 268.6C241 277.6 245.7 278.2 266.5 278.4C279.3 278.5 287.4 278.1 291.5 277.1C298.5 275.6 311 271.6 314 270C321.3 266.1 306.2 279.6 293.5 288.3C284 294.8 277.6 298.1 267.2 301.9C252.6 307.3 245.1 308.5 226 308.5C207 308.4 199.1 307.6 171 302.4C134.3 295.7 118.9 294.4 98.8 296C91.8 296.6 81.6 298.2 76.3 299.6C64.5 302.6 48.8 310 40.4 316.3C27.4 326.2 13.9 343.3 4.90001 361.5C2.60001 366.2 0.600007 369.9 0.400007 369.7C-0.199993 369.1 4.20001 349.2 6.60001 342.2C10 332 17.7 315.9 23.5 306.8C34.8 289.4 53.5 276 76.9 268.6C84.3 266.2 102 262.7 111 261.7C120.5 260.7 149.9 261.1 160.2 262.5Z" fill="black"/>
</svg>
